# xmcd CD database file
#
# Track frame offsets:
#	150
#	13265
#	28452
#	47700
#	62382
#	76987
#	96192
#	111920
#	126112
#	140840
#	162790
#
# Disc length: 2370 seconds
#
# Revision: 2
# Processed by: cddbd v1.4PL0 Copyright (c) Steve Scherf et al.
# Submitted via: CDex 1.50
#
DISCID=9509400b
DTITLE=George Strait - Blue Clear Sky
DYEAR=1996
DGENRE=Country
TTITLE0=Blue Clear Sky
TTITLE1=Carried Away
TTITLE2=Rockin' In The Arms Of Your Memory
TTITLE3=She Knows When You're On My Mind
TTITLE4=I Ain't Never Seen No One Like You
TTITLE5=I Can Still Make Cheyenne
TTITLE6=King Of The Mountain
TTITLE7=Do The Right Thing
TTITLE8=I'd Just As Soon Go
TTITLE9=Need I Say More
TTITLE10=Check Yes Or No
EXTD=YEAR: 1996
EXTT0=
EXTT1=
EXTT2=
EXTT3=
EXTT4=
EXTT5=
EXTT6=
EXTT7=
EXTT8=
EXTT9=
EXTT10=Bonus Track
PLAYORDER=
